<svg width="21" height="26" viewBox="0 0 21 26" fill="none" xmlns="http://www.w3.org/2000/svg">
<g clip-path="url(#clip0_22_495)">
<path d="M15.1 14.4C17.1 13 18.4 10.6 18.4 8.00001C18.4 3.60001 14.8 0.100006 10.5 0.100006C6.2 0.100006 2.6 3.60001 2.6 7.90001C2.6 10.6 3.9 12.9 5.9 14.3C2.4 16.1 0 19.7 0 23.8C0 24.6 0.7 25.3 1.5 25.3C2.3 25.3 3 24.6 3 23.8C3 19.7 6.4 16.3 10.5 16.3C14.6 16.3 18 19.7 18 23.8C18 24.6 18.7 25.3 19.5 25.3C20.3 25.3 21 24.6 21 23.8C21 19.7 18.6 16.1 15.1 14.4ZM10.5 3.00001C13.2 3.00001 15.4 5.20001 15.4 7.90001C15.4 10.6 13.2 12.8 10.5 12.8C7.8 12.8 5.6 10.6 5.6 7.90001C5.6 5.20001 7.8 3.00001 10.5 3.00001Z" fill="#465375"/>
</g>
<defs>
<clipPath id="clip0_22_495">
<rect width="21" height="25.3" fill="white"/>
</clipPath>
</defs>
</svg>
