<?xml version="1.0" encoding="utf-8"?>
<!-- Generator: Adobe Illustrator 25.2.1, SVG Export Plug-In . SVG Version: 6.00 Build 0)  -->
<svg version="1.1" id="圖層_1" xmlns="http://www.w3.org/2000/svg" xmlns:xlink="http://www.w3.org/1999/xlink" x="0px" y="0px"
	 viewBox="0 0 560 117" style="enable-background:new 0 0 560 117;" xml:space="preserve">
<style type="text/css">
	.st0{fill:#FFFFFF;}
	.st1{fill:#FDFF8F;}
</style>
<g>
	
		<image style="overflow:visible;opacity:0.3;" width="588" height="118" xlink:href="53006DA7.png"  transform="matrix(1 0 0 1 -10 12)">
	</image>
	<g>
		<g>
			<g>
				<path class="st0" d="M199.2,55.2c-0.8,3.9-2.5,7-5.2,9.5c-2.6,2.5-6.2,4.2-10.8,5.3l19.6,22h-16.5l-18-21.2l1.9-9.6h2.6
					c4.9,0,8.2-0.6,9.8-1.7c1.6-1.1,2.7-2.6,3.3-4.3h-17.5V45.1h17.4c-0.5-1.3-1.3-2.3-2.2-3.1s-2-1.4-3.3-1.7s-3.3-0.5-6.1-0.5
					h-5.8v-10h45.5v10.1H195c1.5,1.2,2.7,2.9,3.6,5.3h15.3v10.1h-14.7V55.2z M272.9,70.3c0,7.3-2.4,13-7.2,17
					c-4.5,3.8-10.5,5.8-18,5.8c-8,0-14.4-2.6-19.1-7.8c-4.6-5-6.9-11.6-6.9-19.6c0-10.2,3.9-18.6,11.7-25.2
					c7.4-6.2,16.3-9.4,26.7-9.4c0.6,0,1.1,0.4,1.4,1.2c2.5,6.4,3.8,9.9,3.8,10.5c0,1.5-0.7,2.2-2.1,2.2c-3.8,0-7.4,0.5-10.6,1.5
					c-4.2,1.2-7.1,3.1-8.6,5.7c-0.4,0.6-0.5,1-0.5,1.3c0,0.2,0.1,0.3,0.3,0.3c0.1,0,0.4-0.1,0.7-0.2c2.8-1.3,5.9-1.9,9.3-1.9
					c5.7,0,10.3,1.7,13.9,5C271,60.1,272.9,64.7,272.9,70.3z M256.1,70.5c0-2.3-0.7-4.2-2.2-5.7s-3.4-2.3-5.7-2.3
					c-2.5,0-4.5,0.7-6.1,2.1s-2.4,3.4-2.4,5.9c0,2.7,0.7,4.8,2,6.4c1.4,1.8,3.5,2.6,6.1,2.6s4.7-0.9,6.2-2.6
					C255.4,75.3,256.1,73.2,256.1,70.5z M335.4,62.5c0,8.4-2.7,15.6-8.2,21.6c-5.6,6.2-12.6,9.4-20.9,9.4s-15.3-3.1-20.9-9.4
					c-5.5-6-8.2-13.2-8.2-21.6s2.7-15.6,8.2-21.6c5.6-6.2,12.6-9.2,20.9-9.2s15.3,3.1,20.9,9.2C332.7,46.9,335.4,54.1,335.4,62.5z
					 M317.3,62.5c0-3.4-1-6.3-2.9-8.7c-2.1-2.6-4.8-4-8.1-4c-3.4,0-6.1,1.3-8.1,3.9c-1.9,2.4-2.9,5.3-2.9,8.8c0,3.4,1,6.3,2.9,8.8
					c2.1,2.7,4.8,4.1,8.1,4.1c3.2,0,5.9-1.4,8-4.2C316.3,68.7,317.3,65.8,317.3,62.5z M363.3,75.5c0,8.9-3.3,16.4-9.8,22.7
					c-1,1-2.7,2.3-4.9,3.9c-2.7,2-4.4,2.9-5.2,2.9c-0.5,0-1.6-1-3.5-3.1c-1.8-2.1-2.7-3.4-2.7-4.1c0-0.4,0.6-1.2,1.8-2.6
					c1.5-1.7,2.6-3.2,3.4-4.6c1.2-2.2,1.8-4.7,1.8-7.3c0-0.4-0.1-1-0.2-1.8s-0.1-1.4-0.1-1.8c0-0.8,0.3-1.5,0.8-2.1
					c0.4-0.4,3.1-1.2,8.1-2.4c4.9-1.2,7.7-1.8,8.6-1.8C362.7,73.5,363.3,74.2,363.3,75.5z M426.5,62.5c0,8.4-2.7,15.6-8.2,21.6
					c-5.6,6.2-12.6,9.4-20.9,9.4s-15.3-3.1-20.9-9.4c-5.5-6-8.2-13.2-8.2-21.6s2.7-15.6,8.2-21.6c5.6-6.2,12.6-9.2,20.9-9.2
					s15.3,3.1,20.9,9.2C423.8,46.9,426.5,54.1,426.5,62.5z M408.4,62.5c0-3.4-1-6.3-2.9-8.7c-2.1-2.6-4.8-4-8.1-4
					c-3.4,0-6.1,1.3-8.1,3.9c-1.9,2.4-2.9,5.3-2.9,8.8c0,3.4,1,6.3,2.9,8.8c2.1,2.7,4.8,4.1,8.1,4.1c3.2,0,5.9-1.4,8-4.2
					C407.4,68.7,408.4,65.8,408.4,62.5z M489.5,62.5c0,8.4-2.7,15.6-8.2,21.6c-5.6,6.2-12.6,9.4-20.9,9.4s-15.3-3.1-20.9-9.4
					c-5.5-6-8.2-13.2-8.2-21.6s2.7-15.6,8.2-21.6c5.6-6.2,12.6-9.2,20.9-9.2s15.3,3.1,20.9,9.2C486.8,46.9,489.5,54.1,489.5,62.5z
					 M471.4,62.5c0-3.4-1-6.3-2.9-8.7c-2.1-2.6-4.8-4-8.1-4c-3.4,0-6.1,1.3-8.1,3.9c-1.9,2.4-2.9,5.3-2.9,8.8c0,3.4,1,6.3,2.9,8.8
					c2.1,2.7,4.8,4.1,8.1,4.1c3.2,0,5.9-1.4,8-4.2C470.4,68.7,471.4,65.8,471.4,62.5z M552.5,62.5c0,8.4-2.7,15.6-8.2,21.6
					c-5.6,6.2-12.6,9.4-20.9,9.4c-8.3,0-15.3-3.1-20.9-9.4c-5.5-6-8.2-13.2-8.2-21.6s2.7-15.6,8.2-21.6c5.6-6.2,12.6-9.2,20.9-9.2
					s15.3,3.1,20.9,9.2C549.8,46.9,552.5,54.1,552.5,62.5z M534.4,62.5c0-3.4-1-6.3-2.9-8.7c-2.1-2.6-4.8-4-8.1-4
					c-3.4,0-6.1,1.3-8.1,3.9c-1.9,2.4-2.9,5.3-2.9,8.8c0,3.4,1,6.3,2.9,8.8c2.1,2.7,4.8,4.1,8.1,4.1c3.2,0,5.9-1.4,8-4.2
					C533.4,68.7,534.4,65.8,534.4,62.5z"/>
			</g>
			<g>
				<path class="st0" d="M32.4,50.1c0,2.5-0.8,4.6-2.4,6.3c-1.8,1.9-4.9,2.9-9.4,2.9c-0.3,0-0.8,0-1.5,0s-1.1,0-1.5,0
					c-5,0-8-0.1-9-0.3C8.2,58.8,8,58.6,8,58.3c0-1.5,0.1-3.7,0.2-6.6c0.2-3,0.3-5.2,0.3-6.7c0-1.6-0.1-4.6-0.2-8.9
					c0-1.1-0.1-2.8-0.2-5v-0.3c0-0.3,0.2-0.4,0.6-0.5c0.5-0.1,2-0.1,4.8-0.1c4.4,0,6.9,0,7.6,0c3.4,0.1,5.8,0.7,7.4,1.6
					c2.1,1.3,3.2,3.5,3.2,6.6c0,0.8-0.2,1.7-0.7,2.6c-0.4,0.6-0.8,1.3-1.4,1.9c-0.5,0.6-0.8,0.8-0.8,0.8c0,0.1,0.2,0.2,0.5,0.5
					c1,0.5,1.7,1.4,2.3,2.6C32.1,47.8,32.4,48.9,32.4,50.1z M23.5,38.6c0-1.2-0.6-2-1.8-2.3C21,36.1,20,36,18.5,36s-2.2,0.1-2.2,0.3
					c0,0.3,0,0.7-0.1,1.2c0,0.5-0.1,0.9-0.1,1.2c0,1.4,0.1,2.1,0.3,2.3c0.2,0.1,1,0.2,2.6,0.2C22.1,41.1,23.5,40.3,23.5,38.6z
					 M24.1,50.1c0-1.2-0.5-2.1-1.5-2.5c-0.7-0.3-1.7-0.4-3.2-0.4c-1.8,0-2.7,0.1-2.9,0.2c-0.2,0.1-0.2,1-0.2,2.5
					c0,1.6,0.1,2.5,0.3,2.7c0.2,0.2,1.2,0.2,3,0.2c1.5,0,2.5-0.1,3.1-0.3C23.7,52,24.1,51.2,24.1,50.1z M63.5,44.6
					c0,4.3-1.4,7.8-4.1,10.7c-2.8,2.9-6.3,4.4-10.5,4.4s-7.7-1.5-10.5-4.4c-2.7-2.9-4.1-6.4-4.1-10.7s1.4-7.8,4.1-10.7
					c2.8-3,6.3-4.5,10.5-4.5s7.7,1.5,10.5,4.5C62.1,36.8,63.5,40.4,63.5,44.6z M55.7,44.6c0-2.1-0.6-3.8-1.9-5.2
					c-1.3-1.5-3-2.3-5-2.3c-1.9,0-3.6,0.8-4.9,2.3C42.6,41,42,42.7,42,44.6c0,2.1,0.6,3.8,1.8,5.2c1.3,1.5,3,2.2,5,2.2
					c1.9,0,3.6-0.8,4.9-2.3C55,48.3,55.7,46.6,55.7,44.6z M94,30.9c0,1.6-0.1,3.9-0.2,7c-0.1,3.1-0.2,5.5-0.2,7v13.5
					c0,0.4-0.2,0.6-0.6,0.6c-0.3,0-0.8,0-1.5,0s-1.1,0-1.5,0s-0.9,0-1.6-0.1s-1.2-0.1-1.6-0.1c-0.2,0-0.5-0.2-0.9-0.7
					c-1-1.3-3.2-4.3-6.6-8.8c-0.9-1.3-2.4-3.1-4.3-5.6c-0.1-0.1-0.2-0.2-0.3-0.2c-0.1,0.1-0.2,0.2-0.2,0.5c0,1.6,0,4,0.1,7.1
					c0.1,3.2,0.1,5.6,0.1,7.1c0,0.5-0.2,0.7-0.6,0.7H67c-0.4,0-0.6-0.2-0.6-0.6c0-1.5,0.1-3.7,0.2-6.7c0.2-3,0.2-5.2,0.2-6.7
					c0-1.6-0.1-3.9-0.2-7.1c-0.1-3.1-0.2-5.5-0.2-7c0-0.3,0.3-0.5,0.8-0.5c0.8,0,1.8-0.1,2.9-0.2c0.3,0,0.8-0.1,1.6-0.3
					c0.7-0.1,1.2-0.2,1.6-0.2c0.2,0,0.4,0.2,0.8,0.7L81.9,41c0.7,0.9,1.7,2.3,3.1,4.1c0.3,0.4,0.6,0.6,0.9,0.6
					c0.2,0,0.3-0.5,0.3-1.6c0-1.4-0.1-3.6-0.2-6.5c-0.2-2.9-0.2-5.1-0.2-6.5c0-0.5,0.1-0.8,0.4-0.8c0.8,0,2.1,0,3.7-0.1
					c1.7-0.1,2.9-0.1,3.7-0.1C93.8,30.2,94,30.4,94,30.9z M122.3,48.9c0,3.5-0.4,5.9-1.3,7.1c-1.5,2.3-5.4,3.5-11.5,3.5
					c-2.8,0-4.9-0.2-6.4-0.6c-2.4-0.7-3.9-2-4.6-3.9c-0.4-0.9-0.5-2.6-0.5-5c0-0.6,0-1.4,0.1-2.5c0-1.1,0.1-1.9,0.1-2.5
					c0-1.6-0.1-4-0.2-7.1c-0.2-3.2-0.2-5.5-0.2-7.1c0-0.3,0.1-0.5,0.4-0.5c0.8,0,2.1,0,3.8,0.1c1.7,0.1,3,0.1,3.8,0.1
					c0.3,0,0.5,0.2,0.5,0.5c0,1.8-0.1,4.5-0.2,8.1c-0.1,3.6-0.2,6.3-0.2,8.1c0,2.1,0.2,3.6,0.7,4.3c0.6,1,1.9,1.5,3.8,1.5
					c2.8,0,4.2-1.4,4.2-4.1c0-2,0-5-0.1-8.9c-0.1-4-0.1-6.9-0.1-8.9c0-0.4,0.2-0.6,0.5-0.6c0.8,0,2,0,3.7-0.1
					c1.6-0.1,2.8-0.1,3.7-0.1c0.4,0,0.6,0.2,0.6,0.5c0,1.6-0.1,3.9-0.2,7.1c-0.1,3.2-0.2,5.6-0.2,7.1c0,0.4,0,1.1,0,2
					C122.3,47.8,122.3,48.5,122.3,48.9z M140.3,49.6c0,2.8-1.2,5.2-3.5,7.1c-2.1,1.8-4.5,2.9-7.5,3.3c-0.1,0-0.2,0-0.3,0
					c-0.3,0-1-1-2.1-2.9s-1.6-3.1-1.6-3.5c0-0.2,0.1-0.2,0.3-0.3c2-0.5,3.3-0.8,3.9-1.1c1.4-0.7,2.1-1.8,2.1-3.2
					c0-0.9-0.5-1.9-1.4-3c-1.6-1.9-2.5-2.9-2.6-3.1c-0.9-1.4-1.4-3-1.4-4.7c0-2.5,1.2-4.6,3.5-6.2c1.9-1.4,4.2-2.3,7-2.7
					c0.2,0,0.3,0,0.3,0c0.2,0,0.4,0.2,0.5,0.5c0.4,1,1.2,2.8,2.5,5.4c0,0.1,0.1,0.2,0.1,0.2c0,0.2-0.1,0.3-0.4,0.3
					c-0.1,0-0.3,0-0.6-0.1c-0.3,0-0.5-0.1-0.6-0.1c-1,0-1.8,0.2-2.6,0.7c-0.9,0.5-1.3,1.2-1.3,2.2c0,0.8,0.5,1.9,1.5,3.1
					c1.7,2.2,2.6,3.3,2.7,3.4C139.8,46.6,140.3,48.1,140.3,49.6z"/>
			</g>
			<g>
				<path class="st1" d="M19.8,80c0,0.6,0,1.6-0.1,2.9s-0.1,2.3-0.1,2.9s0,1.6,0.1,2.9c0,1.3,0.1,2.2,0.1,2.9c0,0.2-0.1,0.3-0.3,0.3
					c-0.1,0-1,0-2.7,0c-0.1,0-0.2-0.3-0.2-1s-0.1-1-0.1-1s-0.1,0-0.2,0.1c-1.5,1.3-2.9,1.9-4.4,1.9c-1.9,0-3.2-0.7-3.8-2.1
					c-0.4-0.9-0.6-2.4-0.6-4.7c0-2,0.2-3.8,0.5-5.2c0.1-0.3,0.2-0.5,0.4-0.5c0.3,0,0.6,0,1.1,0s0.9,0,1.1,0c0.2,0,0.3,0.1,0.3,0.3
					c0,0.3-0.1,0.9-0.2,1.7c-0.1,0.9-0.2,1.5-0.2,1.8c0,0.5,0,1.1,0,1.7c0,1.5,0.1,2.6,0.3,3.1c0.4,0.9,1.2,1.4,2.5,1.4
					c0.6,0,1.2-0.3,2-0.8c0.8-0.6,1.2-1.1,1.2-1.6c0-0.7,0.1-3,0.1-7c0-0.4,0.2-0.6,0.5-0.6h2.2C19.7,79.6,19.8,79.7,19.8,80z
					 M35.7,85.7c0,1.8-0.6,3.3-1.7,4.6c-1.2,1.4-2.6,2.1-4.4,2.1c-1.1,0-2-0.3-2.9-1c-0.4-0.3-0.7-0.7-1.1-1c-0.1,0-0.1,0.1-0.1,0.2
					s0,0.5,0,1.5v3.7c0,0.3-0.1,0.4-0.3,0.4c-1.4,0-2.2,0-2.4-0.1c-0.2,0-0.3-0.1-0.3-0.3c0-1.1,0-2.8,0-5.1c0-2.2,0-3.9,0-5.1
					c0-2.1-0.1-4-0.4-5.8c0-0.1,0-0.2,0-0.2c0-0.1,0-0.2,0.1-0.2c0.3,0,0.8-0.1,1.5-0.1c0.9-0.2,1.3-0.2,1.5-0.2
					c0.1,0,0.2,0.3,0.3,0.8c0,0.4,0,0.7,0.1,1c0,0.1,0,0.1,0.1,0.2c0.1,0,0.1-0.1,0.2-0.2c1.2-1.3,2.5-1.9,3.7-1.9
					c1.7,0,3.2,0.7,4.4,2C35.1,82.3,35.7,83.9,35.7,85.7z M32.6,85.6c0-1.1-0.3-2-1-2.8C30.9,82,30,81.5,29,81.5s-1.9,0.4-2.5,1.3
					c-0.6,0.8-0.9,1.7-0.9,2.8c0,1.1,0.3,2,0.9,2.8c0.7,0.9,1.5,1.3,2.6,1.3c1,0,1.8-0.4,2.5-1.3C32.3,87.5,32.6,86.6,32.6,85.6z
					 M51.8,89.6c0,0.2,0,0.5-0.1,0.8c0,0.4-0.1,0.7-0.1,0.8c0,0.2,0,0.3,0,0.3c0,0.1-0.1,0.1-0.3,0.2c-0.7,0.3-1.9,0.5-3.4,0.5
					c-2.1,0-3.1-0.9-3.1-2.8c0-0.7,0-1.9,0.1-3.4c0-1.5,0.1-2.6,0.1-3.4c0-0.4-0.2-0.6-0.5-0.6s-0.6,0-1,0c-0.2,0-0.3-0.4-0.3-1.1
					c0-0.3,0-0.5,0.1-0.8c0-0.2,0.2-0.3,0.4-0.4c0.2,0,0.4,0,0.6,0c0.4,0,0.6-0.2,0.6-0.5c0-0.4,0-0.9,0-1.6s0-1.3,0-1.6
					c0-0.6,0.1-1,0.4-1c0.1,0,0.9,0.1,2.5,0.4c0.2,0,0.3,0.1,0.3,0.3c0,0.4,0,1-0.1,1.7c-0.1,0.8-0.1,1.4-0.1,1.7
					c0,0.3,0.1,0.4,0.4,0.4h3.2c0.1,0,0.2,0.1,0.2,0.2s0,0.3-0.1,0.5c0,0.2,0,0.4,0,0.5s0,0.3,0,0.6c0,0.3,0,0.5,0,0.6
					c0,0.2-0.1,0.3-0.4,0.3c-0.4,0-0.9,0-1.6-0.1C48.9,82,48.4,82,48,82c-0.1,0-0.1,0.3-0.2,0.8c0,0.6-0.1,1.5-0.1,2.6v2
					c0,0.8,0.1,1.3,0.2,1.6c0.2,0.5,0.6,0.7,1.3,0.7c0.3,0,0.7-0.1,1.2-0.2s0.9-0.2,1.2-0.2C51.7,89.3,51.8,89.4,51.8,89.6z
					 M65.6,85.6c0,1.8-0.6,3.4-1.8,4.7c-1.2,1.3-2.8,2-4.6,2s-3.4-0.7-4.6-2c-1.2-1.3-1.8-2.9-1.8-4.7c0-1.8,0.6-3.4,1.8-4.7
					c1.2-1.3,2.8-2,4.6-2s3.3,0.7,4.6,2C65,82.2,65.6,83.8,65.6,85.6z M62.8,85.6c0-1.1-0.3-2-1-2.7c-0.7-0.8-1.6-1.2-2.6-1.2
					c-1.1,0-1.9,0.4-2.6,1.2c-0.7,0.8-1,1.7-1,2.8c0,1.1,0.3,2,1,2.7c0.7,0.8,1.6,1.2,2.6,1.2s1.9-0.4,2.6-1.2
					C62.5,87.6,62.8,86.7,62.8,85.6z M82,76.2c0,0.1,0,0.2,0,0.4c-0.1,0.9-0.2,3.1-0.2,6.7v8c0,0.3-0.1,0.6-0.3,0.7
					c-0.1,0-0.3,0-0.7,0c-0.3,0-0.6,0-1.1,0s-0.9,0-1.1,0c-0.3,0-0.8,0-1.4,0s-1.1,0-1.4,0c-0.4,0-0.6-0.2-0.6-0.6
					c0-0.5,0-1.3,0.1-2.3s0.1-1.8,0.1-2.3V83c0-0.3-0.3-0.5-1-0.6s-1-0.3-1-0.8V78c0-0.3,0.1-0.5,0.3-0.5c1.5-0.6,2.6-1.2,3.3-2
					c0.2-0.2,0.4-0.3,0.5-0.3c0,0,0.1,0,0.2,0c0.9,0.2,2.3,0.4,4.1,0.8C82,76,82,76,82,76.2z M100.6,84c0,2.3-0.8,4.3-2.5,5.9
					c-1.6,1.6-3.6,2.5-5.9,2.5s-4.3-0.8-5.9-2.5c-1.6-1.6-2.5-3.6-2.5-5.9s0.8-4.3,2.5-5.9c1.6-1.6,3.6-2.5,5.9-2.5s4.3,0.8,5.9,2.5
					C99.8,79.7,100.6,81.7,100.6,84z M94,84c0-0.5-0.2-0.9-0.5-1.3c-0.4-0.4-0.8-0.5-1.3-0.5s-0.9,0.2-1.3,0.5
					c-0.4,0.4-0.5,0.8-0.5,1.3s0.2,0.9,0.5,1.3c0.4,0.4,0.8,0.5,1.3,0.5s0.9-0.2,1.3-0.5C93.8,84.9,94,84.5,94,84z M118.5,84
					c0,2.3-0.8,4.3-2.5,5.9c-1.6,1.6-3.6,2.5-5.9,2.5s-4.3-0.8-5.9-2.5c-1.6-1.6-2.5-3.6-2.5-5.9s0.8-4.3,2.5-5.9
					c1.6-1.6,3.6-2.5,5.9-2.5s4.3,0.8,5.9,2.5C117.7,79.7,118.5,81.7,118.5,84z M111.9,84c0-0.5-0.2-0.9-0.5-1.3
					c-0.4-0.4-0.8-0.5-1.3-0.5s-0.9,0.2-1.3,0.5c-0.4,0.4-0.5,0.8-0.5,1.3s0.2,0.9,0.5,1.3c0.4,0.4,0.8,0.5,1.3,0.5s0.9-0.2,1.3-0.5
					C111.7,84.9,111.9,84.5,111.9,84z M142.3,86.9c0,1.5-0.5,2.9-1.6,3.9c-1.1,1.1-2.4,1.6-3.9,1.6s-2.8-0.5-3.9-1.6
					c-1.1-1.1-1.6-2.4-1.6-3.9s0.5-2.8,1.6-3.9s2.4-1.6,3.9-1.6s2.8,0.5,3.9,1.6C141.7,84.1,142.3,85.4,142.3,86.9z M135.6,75.6
					c0,0.1-0.7,1.4-2,3.9c-1.5,2.8-2.2,4.2-2.3,4.4c-1.5,3.1-2.7,5.9-3.5,8.3c-0.1,0.4-0.2,0.5-0.3,0.5c-0.1,0-0.5-0.1-1-0.4
					s-0.8-0.5-0.8-0.6c0-0.2,1.5-3,4.5-8.3c0.2-0.4,0.9-1.8,1.9-4.2c0.4-0.9,1-2.3,1.7-4.1c0.1-0.3,0.2-0.5,0.3-0.5s0.4,0.1,0.9,0.4
					C135.4,75.3,135.6,75.5,135.6,75.6z M130.3,80.2c0,1.5-0.5,2.9-1.6,3.9c-1.1,1.1-2.4,1.6-3.9,1.6s-2.9-0.5-3.9-1.6
					c-1.1-1.1-1.6-2.4-1.6-3.9s0.5-2.8,1.6-3.9s2.4-1.6,3.9-1.6s2.8,0.5,3.9,1.6C129.8,77.4,130.3,78.7,130.3,80.2z M137.9,86.9
					c0-0.3-0.1-0.6-0.3-0.8c-0.2-0.2-0.5-0.3-0.8-0.3s-0.6,0.1-0.8,0.3c-0.2,0.2-0.3,0.5-0.3,0.8s0.1,0.6,0.3,0.8
					c0.2,0.2,0.5,0.3,0.8,0.3s0.6-0.1,0.8-0.3C137.8,87.5,137.9,87.2,137.9,86.9z M125.9,80.2c0-0.3-0.1-0.6-0.3-0.8
					c-0.2-0.2-0.5-0.3-0.8-0.3s-0.6,0.1-0.8,0.3c-0.2,0.2-0.3,0.5-0.3,0.8s0.1,0.6,0.3,0.8c0.2,0.2,0.5,0.3,0.8,0.3s0.6-0.1,0.8-0.3
					C125.8,80.8,125.9,80.6,125.9,80.2z"/>
			</g>
		</g>
	</g>
</g>
</svg>
