<svg width="343" height="132" viewBox="0 0 343 132" fill="none" xmlns="http://www.w3.org/2000/svg">
<g filter="url(#filter0_d_22_501)">
<path d="M31.4185 77.7061C30.7544 80.9987 29.2879 83.6965 27.019 85.7993C24.7778 87.9022 21.7204 89.4102 17.8467 90.3232L34.4897 109H20.4614L5.14648 90.9458L6.72363 82.811H8.92334C13.1014 82.811 15.8683 82.3407 17.2241 81.3999C18.6076 80.4315 19.5483 79.2002 20.0464 77.7061H5.14648V69.1562H19.9219C19.4792 68.0771 18.8566 67.1917 18.0542 66.5C17.2795 65.8083 16.3387 65.3379 15.2319 65.0889C14.1252 64.8122 12.4097 64.6738 10.0854 64.6738H5.14648V56.124H43.8281V64.6738H27.7661C29.0389 65.6699 30.0627 67.1641 30.8374 69.1562H43.8281V77.7061H31.4185ZM94.0479 90.5723C94.0479 96.7702 92.0003 101.598 87.9053 105.057C84.0592 108.322 78.9681 109.955 72.6318 109.955C65.8252 109.955 60.402 107.741 56.3623 103.314C52.4609 99.0529 50.5103 93.4914 50.5103 86.6294C50.5103 77.9689 53.8167 70.8302 60.4297 65.2134C66.7106 59.9009 74.2643 57.2446 83.0908 57.2446C83.6165 57.2446 84.0039 57.5767 84.2529 58.2407C86.3835 63.6916 87.4487 66.6799 87.4487 67.2056C87.4487 68.4784 86.84 69.1147 85.6226 69.1147C82.3576 69.1147 79.3416 69.5298 76.5747 70.3599C72.9777 71.4113 70.529 73.0161 69.2285 75.1743C68.9242 75.6724 68.772 76.0459 68.772 76.2949C68.772 76.4609 68.855 76.5439 69.021 76.5439C69.1317 76.5439 69.3392 76.4886 69.6436 76.3779C72.0508 75.2988 74.6794 74.7593 77.5293 74.7593C82.3438 74.7593 86.2728 76.1704 89.3164 78.9927C92.4707 81.9256 94.0479 85.7855 94.0479 90.5723ZM79.7705 90.7383C79.7705 88.7738 79.1341 87.1551 77.8613 85.8823C76.5885 84.5819 74.9837 83.9316 73.0469 83.9316C70.944 83.9316 69.2147 84.5404 67.8589 85.7578C66.5031 86.9753 65.8252 88.6354 65.8252 90.7383C65.8252 93.0072 66.3924 94.8333 67.5269 96.2168C68.7443 97.7109 70.4736 98.458 72.7148 98.458C74.9561 98.458 76.7131 97.7248 77.9858 96.2583C79.1756 94.8472 79.7705 93.0072 79.7705 90.7383ZM147.214 83.9316C147.214 91.0703 144.904 97.1991 140.283 102.318C135.496 107.63 129.561 110.287 122.478 110.287C115.395 110.287 109.473 107.63 104.714 102.318C100.066 97.1991 97.7417 91.0703 97.7417 83.9316C97.7417 76.7653 100.066 70.6504 104.714 65.5869C109.473 60.3574 115.395 57.7427 122.478 57.7427C129.561 57.7427 135.483 60.3574 140.242 65.5869C144.89 70.6781 147.214 76.793 147.214 83.9316ZM131.816 83.9316C131.816 81.0817 130.986 78.6053 129.326 76.5024C127.555 74.2612 125.273 73.1406 122.478 73.1406C119.628 73.1406 117.332 74.2474 115.588 76.4609C113.956 78.5085 113.14 80.9987 113.14 83.9316C113.14 86.8092 113.956 89.3133 115.588 91.4438C117.359 93.7404 119.656 94.8887 122.478 94.8887C125.19 94.8887 127.458 93.7127 129.285 91.3608C130.972 89.2026 131.816 86.7262 131.816 83.9316ZM170.955 95.0132C170.955 102.539 168.174 108.958 162.612 114.271C161.727 115.101 160.343 116.208 158.462 117.591C156.165 119.251 154.685 120.082 154.021 120.082C153.606 120.082 152.624 119.196 151.074 117.425C149.525 115.654 148.75 114.506 148.75 113.98C148.75 113.676 149.262 112.943 150.286 111.781C151.558 110.37 152.513 109.069 153.149 107.879C154.173 105.97 154.685 103.895 154.685 101.654C154.685 101.294 154.63 100.782 154.519 100.118C154.436 99.4264 154.395 98.9146 154.395 98.5825C154.395 97.9185 154.63 97.3374 155.1 96.8394C155.432 96.5073 157.729 95.8156 161.99 94.7642C166.112 93.7681 168.547 93.27 169.294 93.27C170.401 93.27 170.955 93.8511 170.955 95.0132ZM224.661 83.9316C224.661 91.0703 222.35 97.1991 217.729 102.318C212.943 107.63 207.008 110.287 199.924 110.287C192.841 110.287 186.92 107.63 182.161 102.318C177.512 97.1991 175.188 91.0703 175.188 83.9316C175.188 76.7653 177.512 70.6504 182.161 65.5869C186.92 60.3574 192.841 57.7427 199.924 57.7427C207.008 57.7427 212.929 60.3574 217.688 65.5869C222.336 70.6781 224.661 76.793 224.661 83.9316ZM209.263 83.9316C209.263 81.0817 208.433 78.6053 206.772 76.5024C205.002 74.2612 202.719 73.1406 199.924 73.1406C197.074 73.1406 194.778 74.2474 193.035 76.4609C191.402 78.5085 190.586 80.9987 190.586 83.9316C190.586 86.8092 191.402 89.3133 193.035 91.4438C194.806 93.7404 197.102 94.8887 199.924 94.8887C202.636 94.8887 204.905 93.7127 206.731 91.3608C208.419 89.2026 209.263 86.7262 209.263 83.9316ZM278.201 83.9316C278.201 91.0703 275.89 97.1991 271.27 102.318C266.483 107.63 260.548 110.287 253.464 110.287C246.381 110.287 240.46 107.63 235.701 102.318C231.052 97.1991 228.728 91.0703 228.728 83.9316C228.728 76.7653 231.052 70.6504 235.701 65.5869C240.46 60.3574 246.381 57.7427 253.464 57.7427C260.548 57.7427 266.469 60.3574 271.228 65.5869C275.876 70.6781 278.201 76.793 278.201 83.9316ZM262.803 83.9316C262.803 81.0817 261.973 78.6053 260.312 76.5024C258.542 74.2612 256.259 73.1406 253.464 73.1406C250.614 73.1406 248.318 74.2474 246.575 76.4609C244.942 78.5085 244.126 80.9987 244.126 83.9316C244.126 86.8092 244.942 89.3133 246.575 91.4438C248.346 93.7404 250.642 94.8887 253.464 94.8887C256.176 94.8887 258.445 93.7127 260.271 91.3608C261.959 89.2026 262.803 86.7262 262.803 83.9316ZM331.741 83.9316C331.741 91.0703 329.43 97.1991 324.81 102.318C320.023 107.63 314.088 110.287 307.004 110.287C299.921 110.287 294 107.63 289.241 102.318C284.592 97.1991 282.268 91.0703 282.268 83.9316C282.268 76.7653 284.592 70.6504 289.241 65.5869C294 60.3574 299.921 57.7427 307.004 57.7427C314.088 57.7427 320.009 60.3574 324.768 65.5869C329.417 70.6781 331.741 76.793 331.741 83.9316ZM316.343 83.9316C316.343 81.0817 315.513 78.6053 313.853 76.5024C312.082 74.2612 309.799 73.1406 307.004 73.1406C304.154 73.1406 301.858 74.2474 300.115 76.4609C298.482 78.5085 297.666 80.9987 297.666 83.9316C297.666 86.8092 298.482 89.3133 300.115 91.4438C301.886 93.7404 304.182 94.8887 307.004 94.8887C309.716 94.8887 311.985 93.7127 313.811 91.3608C315.499 89.2026 316.343 86.7262 316.343 83.9316Z" fill="white"/>
</g>
<g filter="url(#filter1_d_22_501)">
<path d="M29.0166 26.1953C29.0166 28.4115 28.3241 30.2482 26.939 31.7056C25.3612 33.3797 22.591 34.2168 18.6284 34.2168C18.3273 34.2168 17.8937 34.2108 17.3276 34.1987C16.7495 34.1987 16.3219 34.1987 16.0449 34.1987C11.6006 34.1987 8.95687 34.1084 8.11377 33.9277C7.76449 33.8555 7.58984 33.6688 7.58984 33.3677C7.58984 32.0789 7.66211 30.1278 7.80664 27.5142C7.96322 24.9006 8.0415 22.9434 8.0415 21.6426C8.0415 20.2454 7.96924 17.6198 7.82471 13.7656C7.78857 12.778 7.72233 11.2965 7.62598 9.32129L7.60791 9.06836C7.59587 8.83952 7.78255 8.70101 8.16797 8.65283C8.56543 8.60465 9.96257 8.58057 12.3594 8.58057C16.2015 8.58057 18.4478 8.59261 19.0981 8.6167C22.061 8.7251 24.2471 9.20687 25.6562 10.062C27.5231 11.2062 28.4565 13.1393 28.4565 15.8613C28.4565 16.5719 28.2397 17.3247 27.8062 18.1196C27.493 18.6857 27.0835 19.2518 26.5776 19.8179C26.132 20.3117 25.9092 20.5405 25.9092 20.5044C25.9092 20.5887 26.0658 20.7212 26.3789 20.9019C27.222 21.3836 27.8844 22.1484 28.3662 23.1963C28.7998 24.1357 29.0166 25.1354 29.0166 26.1953ZM21.248 16.0239C21.248 14.9881 20.7301 14.3016 19.6943 13.9644C19.1162 13.7837 18.1647 13.6934 16.8398 13.6934C15.5391 13.6934 14.8887 13.7897 14.8887 13.9824C14.8887 14.2113 14.8646 14.5605 14.8164 15.0303C14.7803 15.488 14.7622 15.8312 14.7622 16.0601C14.7622 17.2645 14.8646 17.939 15.0693 18.0835C15.2018 18.1919 15.9666 18.2461 17.3638 18.2461C19.9533 18.2461 21.248 17.5054 21.248 16.0239ZM21.79 26.123C21.79 25.0391 21.3384 24.3044 20.4351 23.9189C19.8569 23.6781 18.9175 23.5576 17.6167 23.5576C16.063 23.5576 15.2199 23.6178 15.0874 23.7383C14.9549 23.8467 14.8887 24.5814 14.8887 25.9424C14.8887 27.3636 14.967 28.1525 15.1235 28.3091C15.2801 28.4536 16.1473 28.5259 17.7251 28.5259C19.0259 28.5259 19.9412 28.4235 20.4712 28.2188C21.3504 27.8695 21.79 27.1709 21.79 26.123ZM56.4233 21.3535C56.4233 25.1113 55.2249 28.2609 52.8281 30.8022C50.3831 33.3797 47.2878 34.6685 43.542 34.6685C39.8203 34.6685 36.731 33.3677 34.2739 30.7661C31.8651 28.2248 30.6606 25.0872 30.6606 21.3535C30.6606 17.6077 31.8651 14.4582 34.2739 11.9048C36.731 9.29118 39.8203 7.98438 43.542 7.98438C47.2396 7.98438 50.3229 9.29118 52.792 11.9048C55.2129 14.4823 56.4233 17.6318 56.4233 21.3535ZM49.5762 21.3174C49.5762 19.5107 49.0282 17.9751 47.9321 16.7104C46.7879 15.3856 45.3245 14.7231 43.542 14.7231C41.8438 14.7231 40.4045 15.4097 39.2241 16.7827C38.0799 18.1076 37.5078 19.6312 37.5078 21.3535C37.5078 23.1963 38.0438 24.7319 39.1157 25.9604C40.2479 27.2492 41.7233 27.8936 43.542 27.8936C45.2402 27.8936 46.6855 27.2131 47.8779 25.8521C49.0101 24.5513 49.5762 23.0397 49.5762 21.3174ZM83.2881 9.21289C83.2881 10.5859 83.2279 12.6515 83.1074 15.4097C82.999 18.1558 82.9448 20.2214 82.9448 21.6064V33.5122C82.9448 33.8374 82.7702 34 82.4209 34C82.1318 34 81.6922 34.012 81.1021 34.0361C80.5239 34.0602 80.0903 34.0723 79.8013 34.0723C79.4881 34.0723 79.0184 34.0482 78.3921 34C77.7658 33.9518 77.2961 33.9277 76.9829 33.9277C76.7661 33.9277 76.5072 33.729 76.2061 33.3315C75.3389 32.1632 73.3877 29.5737 70.3525 25.563C69.5215 24.4429 68.2568 22.7928 66.5586 20.6128C66.5104 20.5405 66.4201 20.4683 66.2876 20.396C66.1912 20.4803 66.1431 20.6128 66.1431 20.7935C66.1431 22.1906 66.1792 24.2863 66.2515 27.0806C66.3358 29.8748 66.3779 31.9705 66.3779 33.3677C66.3779 33.7892 66.2153 34 65.8901 34H59.6392C59.2899 34 59.1152 33.8133 59.1152 33.4399C59.1152 32.1392 59.1755 30.1759 59.2959 27.5503C59.4284 24.9246 59.4946 22.9554 59.4946 21.6426C59.4946 20.2575 59.4344 18.1859 59.314 15.4277C59.2056 12.6696 59.1514 10.604 59.1514 9.23096C59.1514 8.96598 59.3862 8.8335 59.856 8.8335C60.5545 8.8335 61.4157 8.78532 62.4395 8.68896C62.6803 8.66488 63.1561 8.58659 63.8667 8.4541C64.4689 8.3457 64.9447 8.2915 65.2939 8.2915C65.4385 8.2915 65.6613 8.49626 65.9624 8.90576L72.7012 18.1377C73.3034 18.9688 74.2127 20.1852 75.4292 21.7871C75.7303 22.1605 75.9893 22.3472 76.2061 22.3472C76.3626 22.3472 76.4409 21.8774 76.4409 20.938C76.4409 19.6733 76.3687 17.7703 76.2241 15.229C76.0916 12.6877 76.0254 10.7786 76.0254 9.50195C76.0254 9.05632 76.1519 8.8335 76.4048 8.8335C77.1274 8.8335 78.2174 8.80339 79.6748 8.74316C81.1322 8.68294 82.2222 8.65283 82.9448 8.65283C83.1737 8.65283 83.2881 8.83952 83.2881 9.21289ZM108.22 25.1294C108.22 28.2007 107.852 30.2964 107.118 31.4165C105.769 33.464 102.402 34.4878 97.0186 34.4878C94.5856 34.4878 92.7127 34.3011 91.3999 33.9277C89.3042 33.3255 87.9432 32.1753 87.3169 30.4771C87.0037 29.646 86.8472 28.1646 86.8472 26.0327C86.8472 25.5389 86.8652 24.8042 86.9014 23.8286C86.9375 22.853 86.9556 22.1243 86.9556 21.6426C86.9556 20.2454 86.8893 18.1497 86.7568 15.3555C86.6243 12.5612 86.5581 10.4715 86.5581 9.08643C86.5581 8.79736 86.6846 8.65283 86.9375 8.65283C87.6722 8.65283 88.7803 8.68294 90.2617 8.74316C91.7552 8.80339 92.8693 8.8335 93.604 8.8335C93.9051 8.8335 94.0557 8.96598 94.0557 9.23096C94.0557 10.8208 94.0015 13.2056 93.8931 16.3853C93.7967 19.5529 93.7485 21.9316 93.7485 23.5215C93.7485 25.4124 93.9473 26.6891 94.3447 27.3516C94.8747 28.2549 95.9827 28.7065 97.6689 28.7065C100.138 28.7065 101.373 27.5081 101.373 25.1113C101.373 23.3649 101.33 20.7453 101.246 17.2524C101.162 13.7596 101.12 11.14 101.12 9.39355C101.12 9.02018 101.27 8.8335 101.571 8.8335C102.282 8.8335 103.354 8.80339 104.787 8.74316C106.22 8.68294 107.292 8.65283 108.003 8.65283C108.352 8.65283 108.527 8.79736 108.527 9.08643C108.527 10.4715 108.467 12.5612 108.346 15.3555C108.238 18.1497 108.184 20.2454 108.184 21.6426C108.184 22.028 108.19 22.6121 108.202 23.395C108.214 24.1659 108.22 24.744 108.22 25.1294ZM124.118 25.6895C124.118 28.1344 123.088 30.2301 121.029 31.9766C119.222 33.5182 117.024 34.4998 114.435 34.9214C114.338 34.9334 114.26 34.9395 114.2 34.9395C113.923 34.9395 113.308 34.0964 112.357 32.4102C111.405 30.7119 110.93 29.6761 110.93 29.3027C110.93 29.1702 111.02 29.0859 111.201 29.0498C112.947 28.6523 114.103 28.3151 114.669 28.0381C115.922 27.4118 116.548 26.4844 116.548 25.2559C116.548 24.473 116.139 23.5998 115.32 22.6362C113.899 20.9982 113.128 20.0889 113.007 19.9082C112.176 18.6556 111.761 17.2705 111.761 15.7529C111.761 13.5488 112.778 11.7181 114.814 10.2607C116.476 9.05632 118.518 8.27344 120.938 7.91211C121.071 7.90007 121.173 7.89404 121.246 7.89404C121.426 7.89404 121.571 8.03857 121.679 8.32764C121.992 9.20687 122.721 10.7967 123.865 13.0972C123.901 13.1694 123.919 13.2297 123.919 13.2778C123.919 13.4826 123.811 13.585 123.594 13.585C123.498 13.585 123.335 13.5669 123.106 13.5308C122.878 13.4946 122.703 13.4766 122.583 13.4766C121.715 13.4766 120.957 13.6753 120.306 14.0728C119.523 14.5304 119.132 15.1688 119.132 15.9878C119.132 16.7225 119.565 17.6258 120.433 18.6978C121.962 20.6248 122.763 21.6366 122.835 21.7329C123.691 23.0578 124.118 24.3766 124.118 25.6895Z" fill="white"/>
</g>
<g filter="url(#filter2_d_22_501)">
<path d="M159.572 17.6138C159.572 18.493 159.536 19.8239 159.464 21.6064C159.392 23.377 159.355 24.7078 159.355 25.5991C159.355 26.4784 159.38 27.7972 159.428 29.5557C159.488 31.3021 159.518 32.6149 159.518 33.4941C159.518 33.735 159.404 33.8916 159.175 33.9639C159.078 33.988 157.856 34 155.507 34C155.363 34 155.272 33.5483 155.236 32.645C155.212 31.7417 155.146 31.29 155.038 31.29C154.977 31.29 154.887 31.3442 154.767 31.4526C152.755 33.1991 150.768 34.0723 148.805 34.0723C146.143 34.0723 144.384 33.1087 143.529 31.1816C142.999 29.9893 142.734 27.8454 142.734 24.75C142.734 21.9557 142.957 19.589 143.403 17.6499C143.511 17.1802 143.71 16.9453 143.999 16.9453C144.348 16.9453 144.872 16.9513 145.571 16.9634C146.269 16.9754 146.793 16.9814 147.143 16.9814C147.383 16.9814 147.504 17.1139 147.504 17.3789C147.504 17.8486 147.426 18.6315 147.269 19.7275C147.1 20.8958 147.01 21.7209 146.998 22.2026C146.962 22.9253 146.944 23.7202 146.944 24.5874C146.944 26.6951 147.094 28.1104 147.396 28.833C147.913 30.1338 149.064 30.7842 150.846 30.7842C151.605 30.7842 152.502 30.4108 153.538 29.6641C154.634 28.8812 155.2 28.1284 155.236 27.4058C155.297 26.5024 155.327 23.3228 155.327 17.8667C155.327 17.2765 155.574 16.9814 156.067 16.9814H159.048C159.398 16.9814 159.572 17.1922 159.572 17.6138ZM181.324 25.3101C181.324 27.743 180.553 29.8568 179.012 31.6514C177.398 33.5423 175.392 34.4878 172.996 34.4878C171.502 34.4878 170.195 34.0241 169.075 33.0967C168.569 32.627 168.063 32.1512 167.558 31.6694C167.485 31.7056 167.437 31.8019 167.413 31.9585C167.401 32.0308 167.395 32.7052 167.395 33.9819L167.377 39.0767C167.377 39.4621 167.238 39.6548 166.961 39.6548C165.107 39.6548 164.011 39.6307 163.673 39.5825C163.396 39.5464 163.258 39.3898 163.258 39.1128C163.258 37.5711 163.27 35.2586 163.294 32.1753C163.318 29.092 163.33 26.7795 163.33 25.2378C163.33 22.4074 163.149 19.7516 162.788 17.2705C162.764 17.126 162.752 17.0296 162.752 16.9814C162.752 16.849 162.812 16.7646 162.933 16.7285C163.39 16.7044 164.059 16.6382 164.938 16.5298C166.118 16.313 166.781 16.2046 166.925 16.2046C167.13 16.2046 167.263 16.5659 167.323 17.2886C167.359 17.7703 167.389 18.2461 167.413 18.7158C167.413 18.8122 167.449 18.9085 167.521 19.0049C167.606 18.9567 167.702 18.8724 167.811 18.752C169.497 17.0296 171.201 16.1685 172.923 16.1685C175.308 16.1685 177.319 17.1019 178.958 18.9688C180.535 20.7633 181.324 22.8771 181.324 25.3101ZM177.097 25.2378C177.097 23.7925 176.645 22.5218 175.742 21.4258C174.79 20.2575 173.604 19.6733 172.183 19.6733C170.785 19.6733 169.641 20.2756 168.75 21.48C167.931 22.564 167.521 23.8286 167.521 25.2739C167.521 26.7433 167.943 28.02 168.786 29.104C169.714 30.2723 170.894 30.8564 172.327 30.8564C173.7 30.8564 174.856 30.2482 175.796 29.0317C176.663 27.8996 177.097 26.6349 177.097 25.2378ZM203.456 30.6758C203.456 30.9408 203.431 31.3021 203.383 31.7598C203.323 32.3258 203.287 32.6932 203.275 32.8618C203.263 33.0786 203.245 33.2111 203.221 33.2593C203.173 33.3436 203.058 33.4279 202.877 33.5122C201.89 33.9819 200.336 34.2168 198.216 34.2168C195.398 34.2168 193.989 32.9401 193.989 30.3867C193.989 29.363 194.013 27.8273 194.061 25.7798C194.109 23.7202 194.133 22.1785 194.133 21.1548C194.133 20.661 193.886 20.396 193.393 20.3599C192.947 20.3599 192.507 20.3538 192.074 20.3418C191.821 20.2816 191.694 19.7878 191.694 18.8604C191.694 18.5111 191.718 18.1437 191.767 17.7583C191.803 17.4692 191.995 17.2946 192.345 17.2344C192.646 17.2344 192.941 17.2284 193.23 17.2163C193.784 17.1922 194.061 16.9453 194.061 16.4756C194.061 15.9938 194.043 15.2591 194.007 14.2715C193.983 13.2839 193.971 12.5431 193.971 12.0493C193.971 11.1701 194.139 10.7305 194.477 10.7305C194.585 10.7305 195.717 10.9172 197.873 11.2905C198.15 11.3267 198.289 11.4591 198.289 11.688C198.289 12.2179 198.246 13.0129 198.162 14.0728C198.09 15.1326 198.054 15.9276 198.054 16.4575C198.054 16.8068 198.216 16.9814 198.542 16.9814H202.877C203.082 16.9814 203.185 17.0537 203.185 17.1982C203.185 17.3428 203.16 17.5776 203.112 17.9028C203.076 18.216 203.058 18.4508 203.058 18.6074C203.058 18.7881 203.064 19.0651 203.076 19.4385C203.088 19.8118 203.094 20.0889 203.094 20.2695C203.094 20.4984 202.926 20.6128 202.588 20.6128C202.107 20.6128 201.378 20.5827 200.402 20.5225C199.427 20.4502 198.698 20.4141 198.216 20.4141C198.12 20.4141 198.048 20.7573 198 21.4438C197.939 22.299 197.909 23.4974 197.909 25.0391V27.731C197.909 28.7668 198.006 29.4894 198.198 29.8989C198.487 30.5252 199.083 30.8384 199.987 30.8384C200.36 30.8384 200.908 30.7601 201.631 30.6035C202.354 30.4349 202.889 30.3506 203.239 30.3506C203.383 30.3506 203.456 30.459 203.456 30.6758ZM222.407 25.2017C222.407 27.7189 221.582 29.8688 219.932 31.6514C218.246 33.4941 216.156 34.4155 213.663 34.4155C211.158 34.4155 209.062 33.5002 207.376 31.6694C205.726 29.8989 204.901 27.755 204.901 25.2378C204.901 22.7205 205.726 20.5767 207.376 18.8062C209.074 16.9995 211.17 16.0962 213.663 16.0962C216.144 16.0962 218.228 16.9995 219.914 18.8062C221.576 20.5646 222.407 22.6965 222.407 25.2017ZM218.595 25.2378C218.595 23.7684 218.144 22.5158 217.24 21.48C216.301 20.384 215.108 19.8359 213.663 19.8359C212.218 19.8359 211.019 20.3779 210.068 21.4619C209.165 22.5098 208.713 23.7684 208.713 25.2378C208.713 26.6831 209.171 27.9357 210.086 28.9956C211.049 30.1157 212.242 30.6758 213.663 30.6758C215.096 30.6758 216.289 30.1157 217.24 28.9956C218.144 27.9357 218.595 26.6831 218.595 25.2378ZM244.9 12.3022C244.9 12.3745 244.882 12.5371 244.846 12.79C244.677 13.9824 244.593 17.0356 244.593 21.9497V32.8979C244.593 33.3677 244.472 33.6808 244.231 33.8374C244.063 33.9458 243.738 34 243.256 34C242.907 34 242.383 33.994 241.684 33.9819C240.986 33.9699 240.462 33.9639 240.112 33.9639C239.691 33.9639 239.052 33.9819 238.197 34.0181C237.354 34.0542 236.722 34.0723 236.3 34.0723C235.782 34.0723 235.523 33.8193 235.523 33.3135C235.523 32.6149 235.566 31.5671 235.65 30.1699C235.734 28.7728 235.776 27.7249 235.776 27.0264V21.6787C235.776 21.2331 235.313 20.9621 234.385 20.8657C233.47 20.7573 233.012 20.39 233.012 19.7637V14.8677C233.012 14.4943 233.169 14.2474 233.482 14.127C235.578 13.3561 237.107 12.4347 238.071 11.3628C238.348 11.0496 238.571 10.8931 238.739 10.8931C238.787 10.8931 238.878 10.9111 239.01 10.9473C240.251 11.1761 242.112 11.5194 244.593 11.9771C244.798 12.0252 244.9 12.1336 244.9 12.3022ZM270.337 23.0879C270.337 26.2676 269.211 28.9836 266.959 31.2358C264.719 33.4761 262.009 34.5962 258.829 34.5962C255.649 34.5962 252.933 33.4761 250.681 31.2358C248.441 28.9836 247.321 26.2676 247.321 23.0879C247.321 19.9082 248.441 17.1982 250.681 14.958C252.933 12.7057 255.649 11.5796 258.829 11.5796C262.009 11.5796 264.719 12.7057 266.959 14.958C269.211 17.1982 270.337 19.9082 270.337 23.0879ZM261.268 23.0879C261.268 22.4255 261.027 21.8534 260.545 21.3716C260.064 20.8898 259.492 20.6489 258.829 20.6489C258.167 20.6489 257.595 20.8898 257.113 21.3716C256.631 21.8534 256.39 22.4255 256.39 23.0879C256.39 23.7503 256.631 24.3224 257.113 24.8042C257.595 25.286 258.167 25.5269 258.829 25.5269C259.492 25.5269 260.064 25.286 260.545 24.8042C261.027 24.3224 261.268 23.7503 261.268 23.0879ZM294.835 23.0879C294.835 26.2676 293.709 28.9836 291.457 31.2358C289.217 33.4761 286.507 34.5962 283.327 34.5962C280.147 34.5962 277.431 33.4761 275.179 31.2358C272.939 28.9836 271.819 26.2676 271.819 23.0879C271.819 19.9082 272.939 17.1982 275.179 14.958C277.431 12.7057 280.147 11.5796 283.327 11.5796C286.507 11.5796 289.217 12.7057 291.457 14.958C293.709 17.1982 294.835 19.9082 294.835 23.0879ZM285.766 23.0879C285.766 22.4255 285.525 21.8534 285.043 21.3716C284.562 20.8898 283.99 20.6489 283.327 20.6489C282.665 20.6489 282.093 20.8898 281.611 21.3716C281.129 21.8534 280.888 22.4255 280.888 23.0879C280.888 23.7503 281.129 24.3224 281.611 24.8042C282.093 25.286 282.665 25.5269 283.327 25.5269C283.99 25.5269 284.562 25.286 285.043 24.8042C285.525 24.3224 285.766 23.7503 285.766 23.0879ZM327.427 27.0083C327.427 29.116 326.681 30.9167 325.187 32.4102C323.706 33.8916 321.911 34.6323 319.803 34.6323C317.708 34.6323 315.913 33.8916 314.419 32.4102C312.938 30.9167 312.197 29.116 312.197 27.0083C312.197 24.9006 312.938 23.106 314.419 21.6245C315.913 20.131 317.708 19.3843 319.803 19.3843C321.911 19.3843 323.706 20.131 325.187 21.6245C326.681 23.106 327.427 24.9006 327.427 27.0083ZM318.25 11.5435C318.25 11.6519 317.34 13.4344 315.521 16.8911C313.51 20.7091 312.462 22.7145 312.378 22.9072C310.306 27.1829 308.692 30.9889 307.536 34.3252C307.368 34.807 307.217 35.0479 307.084 35.0479C306.904 35.0479 306.458 34.8551 305.748 34.4697C305.037 34.0843 304.682 33.8133 304.682 33.6567C304.682 33.4038 306.741 29.6099 310.86 22.2749C311.198 21.6727 312.053 19.7576 313.426 16.5298C313.98 15.2772 314.763 13.3923 315.774 10.875C315.943 10.4053 316.088 10.1704 316.208 10.1704C316.413 10.1704 316.804 10.3511 317.382 10.7124C317.96 11.0737 318.25 11.3507 318.25 11.5435ZM311.077 17.8667C311.077 19.9744 310.33 21.7751 308.837 23.2686C307.355 24.75 305.561 25.4907 303.453 25.4907C301.345 25.4907 299.545 24.75 298.051 23.2686C296.57 21.7751 295.829 19.9744 295.829 17.8667C295.829 15.759 296.57 13.9644 298.051 12.4829C299.545 10.9894 301.345 10.2427 303.453 10.2427C305.561 10.2427 307.355 10.9894 308.837 12.4829C310.33 13.9644 311.077 15.759 311.077 17.8667ZM321.411 27.0083C321.411 26.5506 321.255 26.1652 320.941 25.8521C320.64 25.5389 320.261 25.3823 319.803 25.3823C319.346 25.3823 318.966 25.5389 318.665 25.8521C318.364 26.1652 318.213 26.5506 318.213 27.0083C318.213 27.4539 318.37 27.8394 318.683 28.1646C318.996 28.4777 319.37 28.6343 319.803 28.6343C320.261 28.6343 320.64 28.4777 320.941 28.1646C321.255 27.8514 321.411 27.466 321.411 27.0083ZM305.043 17.8667C305.043 17.409 304.892 17.0236 304.591 16.7104C304.29 16.3973 303.911 16.2407 303.453 16.2407C302.995 16.2407 302.616 16.3973 302.315 16.7104C302.014 17.0236 301.863 17.409 301.863 17.8667C301.863 18.3123 302.02 18.6978 302.333 19.0229C302.646 19.3361 303.02 19.4927 303.453 19.4927C303.911 19.4927 304.29 19.3361 304.591 19.0229C304.892 18.7098 305.043 18.3244 305.043 17.8667Z" fill="#FDFF8F"/>
</g>
<defs>
<filter id="filter0_d_22_501" x="2.14648" y="53.124" width="340.594" height="77.9575" filterUnits="userSpaceOnUse" color-interpolation-filters="sRGB">
<feFlood flood-opacity="0" result="BackgroundImageFix"/>
<feColorMatrix in="SourceAlpha" type="matrix" values="0 0 0 0 0 0 0 0 0 0 0 0 0 0 0 0 0 0 127 0" result="hardAlpha"/>
<feOffset dx="4" dy="4"/>
<feGaussianBlur stdDeviation="3.5"/>
<feComposite in2="hardAlpha" operator="out"/>
<feColorMatrix type="matrix" values="0 0 0 0 0 0 0 0 0 0 0 0 0 0 0 0 0 0 0.3 0"/>
<feBlend mode="normal" in2="BackgroundImageFix" result="effect1_dropShadow_22_501"/>
<feBlend mode="normal" in="SourceGraphic" in2="effect1_dropShadow_22_501" result="shape"/>
</filter>
<filter id="filter1_d_22_501" x="4.58984" y="4.89404" width="130.528" height="41.0454" filterUnits="userSpaceOnUse" color-interpolation-filters="sRGB">
<feFlood flood-opacity="0" result="BackgroundImageFix"/>
<feColorMatrix in="SourceAlpha" type="matrix" values="0 0 0 0 0 0 0 0 0 0 0 0 0 0 0 0 0 0 127 0" result="hardAlpha"/>
<feOffset dx="4" dy="4"/>
<feGaussianBlur stdDeviation="3.5"/>
<feComposite in2="hardAlpha" operator="out"/>
<feColorMatrix type="matrix" values="0 0 0 0 0 0 0 0 0 0 0 0 0 0 0 0 0 0 0.3 0"/>
<feBlend mode="normal" in2="BackgroundImageFix" result="effect1_dropShadow_22_501"/>
<feBlend mode="normal" in="SourceGraphic" in2="effect1_dropShadow_22_501" result="shape"/>
</filter>
<filter id="filter2_d_22_501" x="139.734" y="7.17041" width="198.693" height="43.4844" filterUnits="userSpaceOnUse" color-interpolation-filters="sRGB">
<feFlood flood-opacity="0" result="BackgroundImageFix"/>
<feColorMatrix in="SourceAlpha" type="matrix" values="0 0 0 0 0 0 0 0 0 0 0 0 0 0 0 0 0 0 127 0" result="hardAlpha"/>
<feOffset dx="4" dy="4"/>
<feGaussianBlur stdDeviation="3.5"/>
<feComposite in2="hardAlpha" operator="out"/>
<feColorMatrix type="matrix" values="0 0 0 0 0 0 0 0 0 0 0 0 0 0 0 0 0 0 0.3 0"/>
<feBlend mode="normal" in2="BackgroundImageFix" result="effect1_dropShadow_22_501"/>
<feBlend mode="normal" in="SourceGraphic" in2="effect1_dropShadow_22_501" result="shape"/>
</filter>
</defs>
</svg>
